{
  "asset": {
    "version": "2.0",
    "generator": "Auto Customizer - Maruti Swift Hatchback Model"
  },
  "scene": 0,
  "scenes": [
    {
      "nodes": [0, 1, 2, 3, 4]
    }
  ],
  "nodes": [
    {
      "name": "SwiftBody",
      "mesh": 0,
      "translation": [0, 0, 0]
    },
    {
      "name": "SwiftRoof", 
      "mesh": 1,
      "translation": [0, 0.8, -0.3]
    },
    {
      "name": "WheelFL",
      "mesh": 2,
      "translation": [-0.9, -0.4, 1.1]
    },
    {
      "name": "WheelFR",
      "mesh": 2,
      "translation": [0.9, -0.4, 1.1]
    },
    {
      "name": "WheelRL",
      "mesh": 2,
      "translation": [-0.9, -0.4, -1.1]
    }
  ],
  "meshes": [
    {
      "name": "CarBody",
      "primitives": [
        {
          "attributes": {
            "POSITION": 0,
            "NORMAL": 1
          },
          "indices": 2,
          "material": 0
        }
      ]
    },
    {
      "name": "CarRoof",
      "primitives": [
        {
          "attributes": {
            "POSITION": 3,
            "NORMAL": 4
          },
          "indices": 5,
          "material": 0
        }
      ]
    },
    {
      "name": "Wheel",
      "primitives": [
        {
          "attributes": {
            "POSITION": 6,
            "NORMAL": 7
          },
          "indices": 8,
          "material": 1
        }
      ]
    }
  ],
  "materials": [
    {
      "name": "SwiftCarPaint",
      "pbrMetallicRoughness": {
        "baseColorFactor": [0.9, 0.9, 0.9, 1.0],
        "metallicFactor": 0.4,
        "roughnessFactor": 0.3
      }
    },
    {
      "name": "TireMaterial",
      "pbrMetallicRoughness": {
        "baseColorFactor": [0.1, 0.1, 0.1, 1.0],
        "metallicFactor": 0.0,
        "roughnessFactor": 0.8
      }
    }
  ],
  "accessors": [
    {
      "bufferView": 0,
      "componentType": 5126,
      "count": 24,
      "type": "VEC3",
      "max": [1.0, 0.4, 1.8],
      "min": [-1.0, -0.4, -1.8]
    },
    {
      "bufferView": 1,
      "componentType": 5126,
      "count": 24,
      "type": "VEC3"
    },
    {
      "bufferView": 2,
      "componentType": 5123,
      "count": 36,
      "type": "SCALAR"
    },
    {
      "bufferView": 3,
      "componentType": 5126,
      "count": 24,
      "type": "VEC3",
      "max": [0.8, 0.3, 1.2],
      "min": [-0.8, -0.3, -1.2]
    },
    {
      "bufferView": 4,
      "componentType": 5126,
      "count": 24,
      "type": "VEC3"
    },
    {
      "bufferView": 5,
      "componentType": 5123,
      "count": 36,
      "type": "SCALAR"
    },
    {
      "bufferView": 6,
      "componentType": 5126,
      "count": 24,
      "type": "VEC3",
      "max": [0.3, 0.3, 0.1],
      "min": [-0.3, -0.3, -0.1]
    },
    {
      "bufferView": 7,
      "componentType": 5126,
      "count": 24,
      "type": "VEC3"
    },
    {
      "bufferView": 8,
      "componentType": 5123,
      "count": 36,
      "type": "SCALAR"
    }
  ],
  "bufferViews": [
    {
      "buffer": 0,
      "byteOffset": 0,
      "byteLength": 288
    },
    {
      "buffer": 0,
      "byteOffset": 288,
      "byteLength": 288
    },
    {
      "buffer": 0,
      "byteOffset": 576,
      "byteLength": 72
    },
    {
      "buffer": 0,
      "byteOffset": 648,
      "byteLength": 288
    },
    {
      "buffer": 0,
      "byteOffset": 936,
      "byteLength": 288
    },
    {
      "buffer": 0,
      "byteOffset": 1224,
      "byteLength": 72
    },
    {
      "buffer": 0,
      "byteOffset": 1296,
      "byteLength": 288
    },
    {
      "buffer": 0,
      "byteOffset": 1584,
      "byteLength": 288
    },
    {
      "buffer": 0,
      "byteOffset": 1872,
      "byteLength": 72
    }
  ],
  "buffers": [
    {
      "uri": "data:application/octet-stream;base64,",
      "byteLength": 1944
    }
  ]
}
